<?xml version="1.0" encoding="UTF-8"?>
<svg version="1.1" xmlns="http://www.w3.org/2000/svg" width="1201" height="334">
<path d="M0 0 C2.501372 2.20686796 4.9412825 4.46455882 7.3671875 6.75390625 C8.10453125 7.42679688 8.841875 8.0996875 9.6015625 8.79296875 C25.97077196 24.29147558 36.59343411 44.4943897 43.3671875 65.75390625 C43.58246094 66.4288916 43.79773438 67.10387695 44.01953125 67.79931641 C53.63078847 99.04375471 52.17713068 138.0920658 37.34326172 167.40527344 C27.46673888 186.03540697 12.07231109 201.37075316 -2.74609375 216.09765625 C-4.05393059 217.4042957 -5.36139215 218.71131086 -6.66850281 220.01867676 C-9.3788567 222.72748467 -12.09247742 225.4329579 -14.80883789 228.13574219 C-18.27118566 231.58099169 -21.72680355 235.03289787 -25.18023396 238.48708344 C-27.86782069 241.17439717 -30.55801323 243.85908944 -33.24907494 246.54292297 C-34.5241659 247.81485967 -35.79867666 249.08737832 -37.07256508 250.36051941 C-42.8608782 256.14170791 -48.62343908 261.87126378 -54.85063171 267.18395996 C-58.16566854 270.10421912 -61.2012584 273.30135606 -64.2734375 276.47265625 C-65.68690961 277.91333989 -67.1009893 279.35342764 -68.515625 280.79296875 C-70.71603462 283.03689209 -72.91229474 285.28435001 -75.09863281 287.54199219 C-77.22897031 289.73857741 -79.37458668 291.91919963 -81.5234375 294.09765625 C-82.17765686 294.78081909 -82.83187622 295.46398193 -83.50592041 296.16784668 C-84.12046082 296.78599243 -84.73500122 297.40413818 -85.36816406 298.04101562 C-85.90362854 298.59059937 -86.43909302 299.14018311 -86.99078369 299.7064209 C-88.6328125 300.75390625 -88.6328125 300.75390625 -90.54101562 300.69900513 C-93.41463999 299.40066723 -95.14934016 297.5882597 -97.36621094 295.34521484 C-97.82211609 294.88814148 -98.27802124 294.43106812 -98.7477417 293.96014404 C-100.25297282 292.44772858 -101.74739668 290.92507262 -103.2421875 289.40234375 C-104.29274449 288.34364277 -105.34404637 287.28568048 -106.39605713 286.22842407 C-109.16792421 283.43943218 -111.93111964 280.64201193 -114.69213867 277.84228516 C-119.09438947 273.38091388 -123.50913108 268.93191658 -127.92481232 264.48384476 C-129.45627993 262.93857493 -130.98376617 261.38945803 -132.51068115 259.83969116 C-137.09744809 255.19801239 -141.73646042 250.70279941 -146.69558716 246.45935059 C-150.45094998 243.1533014 -153.94859289 239.58024794 -157.48046875 236.0390625 C-158.70376137 234.81720497 -158.70376137 234.81720497 -159.95176697 233.57066345 C-161.66479258 231.85831432 -163.37657215 230.14471783 -165.0871582 228.42993164 C-167.68784802 225.8238861 -170.29383206 223.22322103 -172.90039062 220.62304688 C-174.57323736 218.94953926 -176.24577384 217.27572143 -177.91796875 215.6015625 C-178.68794693 214.83360855 -179.45792511 214.0656546 -180.25123596 213.27442932 C-184.91226533 208.59339512 -189.34216224 203.77569206 -193.6328125 198.75390625 C-194.58015935 197.66226566 -195.52797719 196.57103335 -196.4765625 195.48046875 C-223.63976255 163.89918796 -231.13611546 131.84533086 -228.6328125 90.75390625 C-227.94610133 83.58777619 -226.56321385 76.68241332 -224.6328125 69.75390625 C-224.45089355 69.08101563 -224.26897461 68.408125 -224.08154297 67.71484375 C-217.9064518 45.55294371 -205.91114395 26.68701247 -190.6328125 9.75390625 C-189.92898437 8.96628906 -189.22515625 8.17867187 -188.5 7.3671875 C-171.10649828 -11.05140652 -147.80731278 -22.63278271 -123.6328125 -29.24609375 C-122.95992188 -29.43671387 -122.28703125 -29.62733398 -121.59375 -29.82373047 C-79.97830143 -41.05176688 -32.14451908 -27.42299477 0 0 Z M-130.578125 57.44140625 C-142.76307142 71.15526229 -149.25711339 87.12690639 -148.5703125 105.62890625 C-147.37449468 117.98569044 -142.99082172 128.78339038 -135.6328125 138.75390625 C-135.17261719 139.39714844 -134.71242188 140.04039062 -134.23828125 140.703125 C-132.80892405 142.53616234 -131.29502528 144.12887944 -129.6328125 145.75390625 C-128.56740234 146.86185547 -128.56740234 146.86185547 -127.48046875 147.9921875 C-122.56511889 152.37737635 -118.70167053 154.20734439 -112.1940918 153.94262695 C-108.88274207 153.67936733 -105.58172304 153.34231489 -102.27880859 152.98974609 C-97.73257642 152.58453662 -93.19444732 152.5660059 -88.6328125 152.56640625 C-87.25585205 152.55782593 -87.25585205 152.55782593 -85.85107422 152.54907227 C-80.42773404 152.56772068 -75.2470442 153.01824539 -69.88842773 153.83007812 C-60.92966512 155.17867076 -60.92966512 155.17867076 -52.5703125 152.06640625 C-50.00291128 150.07520991 -50.00291128 150.07520991 -47.6328125 147.75390625 C-46.77429688 146.9753125 -45.91578125 146.19671875 -45.03125 145.39453125 C-33.20450668 133.60351828 -26.8888142 117.87837411 -26.2578125 101.25390625 C-26.8855487 84.71547166 -33.17269057 69.06873902 -44.8046875 57.22265625 C-53.36159274 49.75309256 -62.54986038 44.52877355 -73.6328125 41.75390625 C-74.39335937 41.563125 -75.15390625 41.37234375 -75.9375 41.17578125 C-95.71255131 38.08055583 -116.01444282 43.37233969 -130.578125 57.44140625 Z " fill="#FEFEFE" transform="translate(230.6328125,32.24609375)"/>
<path d="M0 0 C16.83 0 33.66 0 51 0 C56.62482328 12.37461121 56.62482328 12.37461121 58.39672852 16.98925781 C58.79844772 18.03052322 59.20016693 19.07178864 59.61405945 20.14460754 C60.24015862 21.78232368 60.24015862 21.78232368 60.87890625 23.453125 C61.32833084 24.62046677 61.77775543 25.78780853 62.24079895 26.99052429 C63.43867827 30.1035689 64.6337029 33.21767735 65.82726288 36.33237839 C67.05992515 39.54736814 68.29590453 42.76108183 69.53173828 45.97485352 C71.00031859 49.79419942 72.46873816 53.61360576 73.93560791 57.43360901 C76.64502923 64.48696552 79.36693383 71.53515896 82.11328125 78.57421875 C82.4037886 79.31968964 82.69429596 80.06516052 82.99360657 80.83322144 C84.55749722 84.84556897 84.55749722 84.84556897 86.12796021 88.85534668 C86.80427964 90.57823864 87.4765072 92.30273528 88.1484375 94.02734375 C88.51114746 94.95281006 88.87385742 95.87827637 89.24755859 96.83178711 C90 99 90 99 90 101 C90.66 101 91.32 101 92 101 C92.13535156 100.48767822 92.27070312 99.97535645 92.41015625 99.44750977 C94.96330911 90.37292418 98.54044501 81.69387373 102 72.9375 C103.43007345 69.30144377 104.85749975 65.66434953 106.28515625 62.02734375 C106.65963394 61.07451508 107.03411163 60.1216864 107.41993713 59.13998413 C110.38709249 51.58343688 113.32184082 44.01464815 116.24609375 36.44140625 C116.67991364 35.31862778 117.11373352 34.1958493 117.56069946 33.03904724 C119.28095113 28.58630093 121.00096432 24.13347001 122.71655273 19.67892456 C123.91157164 16.57671172 125.10977625 13.47574649 126.30859375 10.375 C126.66827744 9.43842056 127.02796112 8.50184113 127.39854431 7.53688049 C127.72778397 6.68681931 128.05702362 5.83675812 128.39624023 4.9609375 C128.6832933 4.21634277 128.97034637 3.47174805 129.26609802 2.70458984 C130 1 130 1 131 0 C147.83 0 164.66 0 182 0 C182 55.11 182 110.22 182 167 C169.79 167 157.58 167 145 167 C144.67 129.38 144.34 91.76 144 53 C137.73 69.17 131.46 85.34 125 102 C117.77648848 120.50187272 117.77648848 120.50187272 114.38696289 129.12792969 C113.00377513 132.64951299 111.62398127 136.17241653 110.24414062 139.6953125 C109.34134501 141.99486987 108.43835886 144.29435245 107.53515625 146.59375 C107.13418228 147.6185144 106.73320831 148.64327881 106.32008362 149.69909668 C104.02195673 155.53695542 101.59017325 161.28548322 99 167 C93.72 167 88.44 167 83 167 C78.30730927 157.15565277 74.44054306 147.02577151 70.52905273 136.85177612 C68.43854705 131.41433225 66.3376394 125.98090567 64.23828125 120.546875 C63.80790558 119.43199203 63.37752991 118.31710907 62.93411255 117.16844177 C57.94467964 104.25092834 52.89150722 91.35845321 47.83486938 78.46713257 C47.09127436 76.57136832 46.34787438 74.67552754 45.60469055 72.77960205 C44.93670438 71.07564611 44.26820274 69.37189211 43.5990448 67.668396 C43.29952408 66.90440491 43.00000336 66.14041382 42.69140625 65.35327148 C42.43560791 64.70164536 42.17980957 64.05001923 41.91625977 63.37864685 C40.58711811 59.92814217 39.29833086 56.46221563 38 53 C37.67 90.62 37.34 128.24 37 167 C24.79 167 12.58 167 0 167 C0 111.89 0 56.78 0 0 Z " fill="#FFFFFF" transform="translate(864,72)"/>
<path d="M0 0 C16.066875 -0.0825 32.13375 -0.165 48.6875 -0.25 C56.26271606 -0.30462402 56.26271606 -0.30462402 63.9909668 -0.36035156 C70.21643066 -0.37841797 70.21643066 -0.37841797 73.14216614 -0.3817749 C75.16079752 -0.38786793 77.17941548 -0.40183261 79.19795227 -0.42230225 C95.80727224 -0.5821348 111.39546869 0.0938607 124.25390625 12.10546875 C133.73491418 22.24997263 136.64199518 32.97197053 136.30859375 46.69921875 C135.77793763 56.69360926 131.99092328 64.88196902 125 72 C122.44057006 74.18149542 119.77795583 76.10984449 117 78 C115.66247679 78.99438898 114.32801433 79.99294701 113 81 C113.6290625 81.268125 114.258125 81.53625 114.90625 81.8125 C125.68797159 86.74870989 132.34876429 93.98689691 136.78686523 104.94238281 C138.90013923 110.66057983 139.51132413 115.80208607 139.4375 121.875 C139.42614014 123.190448 139.42614014 123.190448 139.41455078 124.5324707 C139.24267333 131.30406602 138.26329118 136.98171844 135 143 C134.57589844 143.78375 134.15179687 144.5675 133.71484375 145.375 C127.28394142 155.97971917 118.0774083 162.66015772 106.15576172 165.5871582 C95.90586438 167.71308918 85.61928665 167.37329126 75.1953125 167.29296875 C73.26359314 167.28854729 71.33187017 167.28549331 69.40014648 167.28381348 C62.30837549 167.2682077 55.21668189 167.22632433 48.125 167.1875 C32.24375 167.125625 16.3625 167.06375 0 167 C0 111.89 0 56.78 0 0 Z M36 32 C36 43.22 36 54.44 36 66 C42.52913015 66.06910487 49.05697634 66.12876973 55.58618164 66.16479492 C57.8043245 66.17982277 60.02243793 66.20025077 62.24047852 66.22631836 C65.44034108 66.26296624 68.63980861 66.27978688 71.83984375 66.29296875 C72.82145981 66.30845261 73.80307587 66.32393646 74.81443787 66.33988953 C82.36074346 66.34170804 88.99795066 65.49106222 94.9375 60.5625 C99.27161102 55.1776954 99.6768369 50.77911249 99 44 C97.20646165 38.71902596 94.39000798 36.20104749 90 33 C87.02118573 32.00706191 85.08512761 31.87880215 81.9777832 31.88647461 C80.95695145 31.88655014 79.93611969 31.88662567 78.88435364 31.88670349 C77.23423531 31.89444542 77.23423531 31.89444542 75.55078125 31.90234375 C74.4230278 31.9037587 73.29527435 31.90517365 72.13334656 31.90663147 C68.52637088 31.9122353 64.91945696 31.92478847 61.3125 31.9375 C58.86914152 31.94251451 56.42578207 31.9470775 53.98242188 31.95117188 C47.98823824 31.96135567 41.99418836 31.98093047 36 32 Z M36 98 C36 110.21 36 122.42 36 135 C42.95635071 135.06907741 49.91149883 135.12875129 56.86791992 135.16479492 C59.23156784 135.17982941 61.59518811 135.20026242 63.95874023 135.22631836 C67.36709441 135.26293645 70.77507792 135.27978031 74.18359375 135.29296875 C75.23083115 135.30845261 76.27806854 135.32393646 77.35704041 135.33988953 C84.41905975 135.34148916 91.48335013 134.86046339 97.15625 130.24609375 C97.82140625 129.35083984 97.82140625 129.35083984 98.5 128.4375 C98.9640625 127.83808594 99.428125 127.23867187 99.90625 126.62109375 C103.09705738 121.89186138 102.39057308 116.51865297 102 111 C100.29108911 105.77832784 97.42170415 103.18362698 93 100 C89.41681282 98.29081858 86.61510861 97.75369777 82.65893555 97.77294922 C81.6182341 97.77310028 80.57753265 97.77325134 79.5052948 97.77340698 C78.3936647 97.78372955 77.28203461 97.79405212 76.13671875 97.8046875 C74.41603935 97.80893234 74.41603935 97.80893234 72.66059875 97.81326294 C69.00279232 97.82444303 65.34523222 97.84954405 61.6875 97.875 C59.20508167 97.88503259 56.72265949 97.89415795 54.24023438 97.90234375 C48.15998537 97.92267223 42.0802679 97.96182601 36 98 Z " fill="#FFFFFF" transform="translate(410,72)"/>
<path d="M0 0 C10.56 0 21.12 0 32 0 C32.33 19.47 32.66 38.94 33 59 C35.64 56.69 38.28 54.38 41 52 C56.26380274 42.81159243 72.47007884 39.78866983 90 44 C93.586814 45.3311388 96.77199322 46.9534079 100 49 C100.58394531 49.36996094 101.16789063 49.73992187 101.76953125 50.12109375 C108.62281468 55.13526821 112.13090606 63.99595979 113.53977966 72.10792542 C114.05778115 76.48865409 114.13270537 80.7430031 114.11352539 85.14819336 C114.11367142 86.03679047 114.11381744 86.92538757 114.1139679 87.84091187 C114.11327518 90.75724794 114.10551297 93.67351893 114.09765625 96.58984375 C114.09578979 98.62008123 114.09436696 100.65031916 114.09336853 102.68055725 C114.08956131 108.00864926 114.07974642 113.33671374 114.06866455 118.66479492 C114.05841177 124.10790637 114.05386264 129.55102229 114.04882812 134.99414062 C114.03812247 145.66277441 114.02054028 156.33138061 114 167 C103.11 167 92.22 167 81 167 C80.9906543 164.58816406 80.98130859 162.17632812 80.97167969 159.69140625 C80.93784611 151.70452728 80.88226173 143.71790496 80.81609726 135.73123169 C80.7766619 130.89095748 80.74445411 126.05086413 80.72900391 121.21044922 C80.71381134 116.53531323 80.67931974 111.86067458 80.63169098 107.1857605 C80.61690396 105.40612115 80.60896053 103.62641078 80.60811615 101.84671021 C80.6057366 99.34519007 80.57857945 96.84503344 80.54589844 94.34375 C80.5509288 93.61510239 80.55595917 92.88645477 80.56114197 92.13572693 C80.45239792 86.72272926 78.96425399 82.54185318 76 78 C70.03186435 72.32299292 63.86195076 72.57674772 56.0859375 72.73046875 C50.71115409 72.98060195 46.65641086 74.34370452 42 77 C40.82402 77.66134949 40.82402 77.66134949 39.62428284 78.33605957 C35.3239311 81.36776984 33.28542255 83.65549929 32.17453003 88.88842773 C31.7446112 93.82862511 31.8302409 98.76533192 31.90234375 103.71875 C31.89668566 105.5457926 31.88706818 107.37282685 31.87367249 109.1998291 C31.84912929 113.9876708 31.87807832 118.77372576 31.91845703 123.56140137 C31.95016934 128.45505779 31.93089896 133.34849021 31.91601562 138.2421875 C31.89432517 147.82875826 31.93390239 157.41363217 32 167 C21.44 167 10.88 167 0 167 C0 111.89 0 56.78 0 0 Z " fill="#FFFFFF" transform="translate(575,72)"/>
<path d="M0 0 C15.59430942 16.19812948 17.3203125 35.60038777 17.3203125 57.41015625 C-12.0496875 57.41015625 -41.4196875 57.41015625 -71.6796875 57.41015625 C-66.91495183 70.51317934 -64.491376 74.51366783 -52.58203125 80.24609375 C-42.20544066 84.40790263 -30.00548271 83.15497798 -19.6796875 79.41015625 C-16.72126804 77.95742854 -13.88261491 76.40655033 -11.0546875 74.71484375 C-8.86272226 73.51070495 -7.09255035 72.95546834 -4.6796875 72.41015625 C-2.47154249 75.47917911 -0.29197372 78.5674262 1.8828125 81.66015625 C2.51123047 82.53285156 3.13964844 83.40554687 3.78710938 84.3046875 C4.37685547 85.14902344 4.96660156 85.99335938 5.57421875 86.86328125 C6.12408447 87.63833008 6.6739502 88.41337891 7.24047852 89.21191406 C8.3203125 91.41015625 8.3203125 91.41015625 8.11987305 93.58520508 C5.51590395 99.52861546 -4.22383332 102.82813349 -9.8671875 105.16015625 C-30.4149537 112.51946258 -52.75143195 112.91271076 -72.90234375 103.8515625 C-87.42365551 96.31518551 -97.10318627 85.06902394 -103.03515625 69.95703125 C-108.70140686 52.03776938 -107.74998296 33.43309947 -99.6796875 16.41015625 C-91.8397911 1.36492425 -79.77658198 -9.23640706 -63.6796875 -14.40234375 C-40.6634191 -21.30003917 -17.5865146 -16.51147687 0 0 Z M-64.6796875 17.41015625 C-69.4699998 22.94767539 -70.84574015 27.07436685 -72.6796875 34.41015625 C-53.2096875 34.41015625 -33.7396875 34.41015625 -13.6796875 34.41015625 C-17.0209766 23.27252593 -19.64196752 17.43171052 -29.7421875 11.66015625 C-41.80391055 6.97988677 -55.05054035 8.92130284 -64.6796875 17.41015625 Z " fill="#FFFFFF" transform="translate(1175.6796875,131.58984375)"/>
<path d="M0 0 C10.89 0 21.78 0 33 0 C33.0093457 2.40659912 33.01869141 4.81319824 33.02832031 7.29272461 C33.0621735 15.26762251 33.11776868 23.24226391 33.18390274 31.21695614 C33.22331634 36.04935449 33.25553475 40.88157228 33.27099609 45.71411133 C33.28620306 50.38276775 33.32071995 55.05092759 33.36830902 59.71936226 C33.38308127 61.49538404 33.39103862 63.27147673 33.39188385 65.04755974 C32.99134725 78.20726459 32.99134725 78.20726459 38 90 C41.49727567 92.94546832 45.45700513 94.56733382 50 95 C50.62261719 95.06316406 51.24523437 95.12632812 51.88671875 95.19140625 C62.02769007 95.75580501 70.64906528 91.94545604 78.35546875 85.5859375 C80.8473391 83.18285113 80.99104024 82.18990822 81.15821838 78.64645386 C81.17894725 77.17956682 81.19420648 75.71259684 81.20532227 74.24560547 C81.21522186 73.44552063 81.22512146 72.64543579 81.23532104 71.82110596 C81.26697262 69.16983017 81.29170789 66.51853644 81.31640625 63.8671875 C81.33697262 62.03158089 81.35796901 60.19597904 81.37937927 58.36038208 C81.43463268 53.52382261 81.48402752 48.68722017 81.53222656 43.85058594 C81.58241774 38.9172787 81.63811623 33.98403404 81.69335938 29.05078125 C81.80098094 19.36723891 81.90190824 9.68364357 82 0 C92.56 0 103.12 0 114 0 C114 40.26 114 80.52 114 122 C103.44 122 92.88 122 82 122 C81.67 117.71 81.34 113.42 81 109 C80.27296875 109.59167969 79.5459375 110.18335938 78.796875 110.79296875 C65.00776628 121.62979394 50.65168937 126.30217381 33 125 C22.04411546 123.50143648 13.27515177 119.76560722 6.28125 110.984375 C0.64009652 102.24746655 -0.15715161 92.89339164 -0.11352539 82.76000977 C-0.11367142 81.86165909 -0.11381744 80.96330841 -0.1139679 80.03773499 C-0.1132751 77.08893358 -0.10551247 74.14019653 -0.09765625 71.19140625 C-0.09578982 69.13874852 -0.09436698 67.08609034 -0.09336853 65.03343201 C-0.08956107 59.64615639 -0.07974597 54.25890798 -0.06866455 48.87164307 C-0.05841229 43.3682085 -0.05386275 37.8647695 -0.04882812 32.36132812 C-0.03812205 21.57420491 -0.02053965 10.78710898 0 0 Z " fill="#FFFFFF" transform="translate(719,117)"/>
<path d="M0 0 C8.07174526 7.50503829 8.07174526 7.50503829 10 11 C9.6875 13.25 9.6875 13.25 9 15 C5.77513169 13.61491556 4.00617601 12.09407495 1.8125 9.375 C-14.59478807 -9.74963767 -38.71174918 -19.28598422 -63 -24 C-63.90266602 -24.17805176 -64.80533203 -24.35610352 -65.73535156 -24.53955078 C-74.40461416 -26.07045942 -82.87443212 -26.30828257 -91.64746094 -26.26074219 C-93.99700717 -26.25001367 -96.34578916 -26.26070561 -98.6953125 -26.2734375 C-107.64381093 -26.28214072 -116.18800172 -25.72432216 -125 -24 C-125.77166504 -23.85401367 -126.54333008 -23.70802734 -127.33837891 -23.55761719 C-155.03669547 -18.02443301 -179.37789201 -5.65124839 -197 17 C-197.99 15.68 -198.98 14.36 -200 13 C-175.89346699 -14.03536412 -144.69223456 -29.24655675 -108.27734375 -31.875 C-69.43947485 -33.35630132 -30.00383055 -26.68217236 0 0 Z " fill="#464646" transform="translate(236,216)"/>
<path d="M0 0 C0.59941406 0.48984375 1.19882813 0.9796875 1.81640625 1.484375 C1.14287109 1.63471191 0.46933594 1.78504883 -0.22460938 1.93994141 C-31.2189762 8.92793515 -57.94498382 18.46990607 -78.18359375 44.484375 C-79.17359375 43.164375 -80.16359375 41.844375 -81.18359375 40.484375 C-68.68805446 26.47068608 -21.60763905 -14.99778882 0 0 Z " fill="#484848" transform="translate(117.18359375,188.515625)"/>
<path d="M0 0 C-0.33 1.32 -0.66 2.64 -1 4 C-8.17156168 4.07609679 -15.34301914 4.12861962 -22.51489258 4.16479492 C-24.95438528 4.17987654 -27.3938509 4.20034469 -29.83325195 4.22631836 C-33.34072559 4.26272812 -36.84784054 4.27973289 -40.35546875 4.29296875 C-41.44522507 4.30845261 -42.53498138 4.32393646 -43.65776062 4.33988953 C-53.16449355 4.34200004 -53.16449355 4.34200004 -57 1 C-57 0.67 -57 0.34 -57 0 C-37.87152403 -2.84136513 -19.14073878 -2.64662067 0 0 Z " fill="#292929" transform="translate(171,186)"/>
</svg>
